<?xml version="1.0" encoding="UTF-8"?>
<svg id="Layer_2" data-name="Layer 2" xmlns="http://www.w3.org/2000/svg" xmlns:xlink="http://www.w3.org/1999/xlink" viewBox="0 0 496.92 496.93">
  <defs>
    <style>
      .cls-1 {
        fill: #5efca1;
      }

      .cls-2 {
        mask: url(#mask-2);
      }

      .cls-3 {
        fill: url(#linear-gradient-2);
        mix-blend-mode: multiply;
      }

      .cls-4 {
        filter: url(#luminosity-noclip);
      }

      .cls-5 {
        mask: url(#mask-1);
      }

      .cls-6 {
        mask: url(#mask);
      }

      .cls-7 {
        fill: url(#linear-gradient-3);
      }

      .cls-8 {
        fill: url(#linear-gradient);
      }
    </style>
    <linearGradient id="linear-gradient" x1="19.68" y1="1142.92" x2="500.92" y2="1624.16" gradientTransform="translate(0 1620.17) scale(1 -1)" gradientUnits="userSpaceOnUse">
      <stop offset="0" stop-color="#c835f8"/>
      <stop offset=".5" stop-color="#0276db"/>
      <stop offset="1" stop-color="#5efca1"/>
    </linearGradient>
    <filter id="luminosity-noclip" x="-1.04" y="-1.04" width="499" height="499.01" color-interpolation-filters="sRGB" filterUnits="userSpaceOnUse">
      <feFlood flood-color="#fff" result="bg"/>
      <feBlend in="SourceGraphic" in2="bg"/>
    </filter>
    <filter id="luminosity-noclip-2" x="-1.04" y="-9001.08" width="499" height="32766" color-interpolation-filters="sRGB" filterUnits="userSpaceOnUse">
      <feFlood flood-color="#fff" result="bg"/>
      <feBlend in="SourceGraphic" in2="bg"/>
    </filter>
    <mask id="mask-2" x="-1.04" y="-9001.08" width="499" height="32766" maskUnits="userSpaceOnUse"/>
    <linearGradient id="linear-gradient-2" x1="1881.9" y1="3005.16" x2="-74.61" y2="1048.63" gradientTransform="translate(0 1620.17) scale(1 -1)" gradientUnits="userSpaceOnUse">
      <stop offset="0" stop-color="#fff"/>
      <stop offset="1" stop-color="#000"/>
    </linearGradient>
    <mask id="mask-1" x="-1.04" y="-1.04" width="499" height="499.01" maskUnits="userSpaceOnUse">
      <g class="cls-4">
        <g class="cls-2">
          <rect class="cls-3" x="-1.04" y="-1.04" width="499" height="499.01"/>
        </g>
      </g>
    </mask>
    <linearGradient id="linear-gradient-3" x1="1881.9" y1="3005.16" x2="-74.61" y2="1048.63" gradientTransform="translate(0 1620.17) scale(1 -1)" gradientUnits="userSpaceOnUse">
      <stop offset="0" stop-color="#fff"/>
      <stop offset="1" stop-color="#fff"/>
    </linearGradient>
    <mask id="mask" x="-1.04" y="-1.04" width="499" height="499.01" maskUnits="userSpaceOnUse">
      <g id="id0">
        <g class="cls-5">
          <rect class="cls-7" x="-1.04" y="-1.04" width="499" height="499.01"/>
        </g>
      </g>
    </mask>
  </defs>
  <g id="Logo">
    <path class="cls-8" d="m197.4,277.98h-117.33v-125.95c0-73.85,56.23-130.48,130.12-130.48h59.51c-45.65,27.63-72.32,76.61-72.3,128.33v128.1Zm-118.69,218.95c43.55.03,78.85-35.25,78.83-78.83v-78.72h-78.71C35.26,339.37-.02,374.64,0,418.21v78.72h78.71ZM475.37,227.22v59.52c0,73.88-56.63,130.12-130.48,130.12h-125.94v-117.34h128.1c51.71.02,100.69-26.64,128.32-72.3h0ZM496.92,0H210.67C124.72,0,58.52,65.99,58.52,152.03v147.5h138.88s0,138.88,0,138.88h147.49c86.05,0,152.03-66.2,152.03-152.15V0Z"/>
    <g class="cls-6">
      <g>
        <path class="cls-1" d="m0,496.93l157.54-157.55v78.72c.02,43.58-35.28,78.86-78.83,78.83H0h0Z"/>
        <path class="cls-1" d="m197.4,299.52v138.89h147.49c86.05,0,152.03-66.2,152.03-152.15V0L197.4,299.52Zm277.97-12.78c0,73.88-56.63,130.12-130.48,130.12h-125.94v-117.34h128.1c51.71.02,100.69-26.64,128.32-72.3v59.52Z"/>
      </g>
    </g>
  </g>
</svg>