<?xml version="1.0" encoding="UTF-8"?>
<svg id="Layer_2" data-name="Layer 2" xmlns="http://www.w3.org/2000/svg" xmlns:xlink="http://www.w3.org/1999/xlink" viewBox="0 0 230.7 280.16">
  <defs>
    <style>
      .cls-1 {
        fill: url(#linear-gradient-2);
      }

      .cls-2 {
        fill: url(#linear-gradient-12);
      }

      .cls-2, .cls-3, .cls-4, .cls-5, .cls-6 {
        fill-rule: evenodd;
      }

      .cls-7 {
        fill: #003780;
      }

      .cls-8 {
        fill: url(#linear-gradient-14);
      }

      .cls-9 {
        mask: url(#mask-2);
      }

      .cls-10 {
        fill: url(#linear-gradient-6);
      }

      .cls-3 {
        fill: #47ebe0;
      }

      .cls-4 {
        fill: #106b60;
      }

      .cls-11 {
        mask: url(#mask-3);
      }

      .cls-12 {
        fill: url(#linear-gradient-11);
      }

      .cls-13 {
        fill: url(#linear-gradient-10);
      }

      .cls-14 {
        mask: url(#mask-5);
      }

      .cls-5 {
        fill: url(#linear-gradient-5);
      }

      .cls-15 {
        fill: #06133d;
      }

      .cls-6 {
        fill: #005b50;
      }

      .cls-16 {
        mask: url(#mask-4);
      }

      .cls-17 {
        mask: url(#mask-6);
      }

      .cls-18 {
        fill: url(#linear-gradient-7);
      }

      .cls-19 {
        fill: url(#linear-gradient-9);
      }

      .cls-20 {
        mask: url(#mask-1);
      }

      .cls-21 {
        mask: url(#mask);
      }

      .cls-22 {
        fill: url(#linear-gradient-3);
      }

      .cls-23 {
        fill: url(#linear-gradient);
      }

      .cls-24 {
        mask: url(#mask-7);
      }

      .cls-25 {
        fill: url(#linear-gradient-4);
      }

      .cls-26 {
        fill: #39d5ff;
      }

      .cls-27 {
        fill: url(#linear-gradient-8);
      }

      .cls-28 {
        fill: url(#linear-gradient-13);
      }
    </style>
    <linearGradient id="linear-gradient" x1="-15952.4" y1="5642.55" x2="-13729.33" y2="8149.96" gradientTransform="translate(1233.39 696.87) scale(.07 -.07)" gradientUnits="userSpaceOnUse">
      <stop offset="0" stop-color="#004790"/>
      <stop offset="1" stop-color="#19b5fe"/>
    </linearGradient>
    <linearGradient id="linear-gradient-2" x1="-12553.43" y1="9805.57" x2="-15268.84" y2="6315.75" gradientTransform="translate(1233.39 696.87) scale(.07 -.07)" gradientUnits="userSpaceOnUse">
      <stop offset="0" stop-color="#fff"/>
      <stop offset="1" stop-color="#fff" stop-opacity="0"/>
    </linearGradient>
    <mask id="mask" x="176.29" y="146.38" width="40.29" height="31.13" maskUnits="userSpaceOnUse">
      <g id="id0">
        <rect class="cls-1" x="176.29" y="146.38" width="40.29" height="31.13"/>
      </g>
    </mask>
    <linearGradient id="linear-gradient-3" x1="-16625.77" y1="4113.31" x2="-13953.45" y2="8061.2" xlink:href="#linear-gradient-2"/>
    <mask id="mask-1" x="66.8" y="188.95" width="163.88" height="91.41" maskUnits="userSpaceOnUse">
      <g id="id2">
        <rect class="cls-22" x="66.8" y="188.95" width="163.88" height="91.41"/>
      </g>
    </mask>
    <linearGradient id="linear-gradient-4" x1="-13813.23" y1="8278.16" x2="-16655.35" y2="5720.82" xlink:href="#linear-gradient-2"/>
    <mask id="mask-2" x="66.8" y="146.38" width="136.6" height="95.62" maskUnits="userSpaceOnUse">
      <g id="id4">
        <rect class="cls-25" x="66.8" y="146.38" width="136.6" height="95.62"/>
      </g>
    </mask>
    <linearGradient id="linear-gradient-5" x1="-16594.82" y1="6910.5" x2="-14985.39" y2="9081" gradientTransform="translate(1233.39 696.87) scale(.07 -.07)" gradientUnits="userSpaceOnUse">
      <stop offset="0" stop-color="#007b70"/>
      <stop offset="1" stop-color="#37dbd0"/>
    </linearGradient>
    <linearGradient id="linear-gradient-6" x1="-13403.49" y1="10466.98" x2="-16118.89" y2="6977.17" xlink:href="#linear-gradient-2"/>
    <mask id="mask-3" x="98.83" y="48.33" width="90.72" height="108.95" maskUnits="userSpaceOnUse">
      <g id="id6">
        <rect class="cls-10" x="98.83" y="48.33" width="90.72" height="108.95"/>
      </g>
    </mask>
    <linearGradient id="linear-gradient-7" x1="-18096.28" y1="5416.14" x2="-15292.87" y2="9023.17" xlink:href="#linear-gradient-2"/>
    <mask id="mask-4" x="13.43" y="45.43" width="112.45" height="164.76" maskUnits="userSpaceOnUse">
      <g id="id8">
        <rect class="cls-18" x="13.43" y="45.43" width="112.45" height="164.76"/>
      </g>
    </mask>
    <linearGradient id="linear-gradient-8" x1="-17820.98" y1="5663.61" x2="-14028.49" y2="8676.17" xlink:href="#linear-gradient"/>
    <linearGradient id="linear-gradient-9" x1="-13334.08" y1="8623" x2="-17329.64" y2="6514.7" xlink:href="#linear-gradient-2"/>
    <mask id="mask-5" x="9.58" y="74.32" width="221.34" height="164.96" maskUnits="userSpaceOnUse">
      <g id="id10">
        <rect class="cls-19" x="9.58" y="74.32" width="221.34" height="164.96"/>
      </g>
    </mask>
    <linearGradient id="linear-gradient-10" x1="-16706.01" y1="7382.06" x2="-16943.56" y2="6441.6" xlink:href="#linear-gradient"/>
    <linearGradient id="linear-gradient-11" x1="-14238.39" y1="8484.81" x2="-14879.19" y2="8348.56" xlink:href="#linear-gradient"/>
    <linearGradient id="linear-gradient-12" x1="-16944.53" y1="8610.13" x2="-16027.4" y2="9547.6" xlink:href="#linear-gradient-5"/>
    <linearGradient id="linear-gradient-13" x1="-16145.66" y1="8635.03" x2="-16090.41" y2="9217.07" xlink:href="#linear-gradient-2"/>
    <mask id="mask-6" x="70.52" y="45.28" width="4.53" height="19.98" maskUnits="userSpaceOnUse">
      <g id="id12">
        <rect class="cls-28" x="70.52" y="45.28" width="4.53" height="19.98"/>
      </g>
    </mask>
    <linearGradient id="linear-gradient-14" x1="-15993.73" y1="8620.61" x2="-15938.48" y2="9202.65" xlink:href="#linear-gradient-2"/>
    <mask id="mask-7" x="80.46" y="46.63" width="6.26" height="22.29" maskUnits="userSpaceOnUse">
      <g id="id14">
        <rect class="cls-8" x="80.46" y="46.63" width="6.26" height="22.29"/>
      </g>
    </mask>
  </defs>
  <g id="Layer_1-2" data-name="Layer 1">
    <g id="Layer_1-3" data-name="Layer_1">
      <g id="_2798640186048" data-name=" 2798640186048">
        <path class="cls-23" d="m199.65,146.6l29.76,54.68c2.27,4.17.72,9.42-3.45,11.69l-121.52,66.14c-4.17,2.27-9.42.72-11.69-3.45l-25.75-47.3c2.97-.92,5.99-1.93,9.06-3.03,25.67-9.22,55.33-24.74,82.9-44.38,16.1-11.47,29.83-23.18,40.69-34.36h0Z"/>
        <g class="cls-21">
          <path class="cls-26" d="m199.65,146.6l16.71,30.7c-14.05-1.06-27.46-4.41-39.86-9.68,8.72-7.09,16.48-14.16,23.15-21.03Z"/>
        </g>
        <g class="cls-20">
          <path class="cls-7" d="m227.65,198.04l1.76,3.24c2.27,4.17.72,9.42-3.45,11.69l-121.52,66.14c-4.17,2.27-9.42.72-11.69-3.45l-25.75-47.3c2.97-.92,5.99-1.93,9.06-3.03,21.98-7.89,46.88-20.41,70.89-36.17,17.23,7.06,36.09,10.97,55.86,10.97,8.47,0,16.76-.72,24.84-2.1h0Z"/>
        </g>
        <g class="cls-9">
          <path class="cls-15" d="m199.65,146.6l3.53,6.49c-12.24,13.83-26.59,26.53-38.69,36.13-24.22,19.24-52.45,37-81.03,48.98-2.77,1.16-5.85,2.39-9.15,3.59l-7.31-13.43c2.97-.92,5.99-1.93,9.06-3.03,25.67-9.22,55.33-24.74,82.9-44.38,16.1-11.47,29.83-23.18,40.69-34.36h0Z"/>
        </g>
        <path class="cls-5" d="m14.59,124.3L52.45,49.14c1.65-3.27,4.98-5.08,8.62-4.69l83.67,9.01c2.9.31,5.25,1.89,6.65,4.45l9.92,18.22h0l10.08,18.51h0l17.97,33.01c-10.39,11.48-24.73,24.05-42.29,36.56-26.08,18.58-53.95,33.2-77.9,41.8-4.21,1.51-8.27,2.84-12.14,3.97L14.72,132.3c-1.39-2.56-1.44-5.39-.13-7.99h0Zm58.15-59.29c6.55,0,11.85,5.31,11.85,11.85s-5.31,11.85-11.85,11.85-11.85-5.31-11.85-11.85,5.31-11.85,11.85-11.85Z"/>
        <g class="cls-11">
          <path class="cls-3" d="m99.07,48.54l45.67,4.92c2.9.31,5.25,1.89,6.65,4.45l9.92,18.22h0l10.08,18.51h0l17.97,33.01c-8.41,9.29-19.41,19.3-32.62,29.41-34.73-22.68-57.68-61.88-57.68-106.45,0-.69.02-1.38.03-2.07h0Z"/>
        </g>
        <g class="cls-16">
          <path class="cls-4" d="m14.59,124.3L52.45,49.14c.75-1.49,1.85-2.68,3.17-3.49-.11,2.36-.17,4.73-.17,7.12,0,53.1,28.09,99.63,70.22,125.57-19.45,11.9-39.03,21.39-56.52,27.67-4.21,1.51-8.27,2.84-12.14,3.97L14.72,132.3c-1.39-2.56-1.44-5.39-.13-7.99h0Z"/>
        </g>
        <path class="cls-27" d="m163.61,80.37c8.56-2.56,16.46-4.29,23.5-5.17,12.29-1.53,22.53-.49,29.95,3.22,3.91,1.95,6.99,4.57,9.28,7.79,3.4,4.78,4.78,10.42,4.26,16.73-.43,5.2-2.19,10.86-5.17,16.84-9.31,18.65-32.01,42.51-64.15,65.42-27.56,19.64-57.22,35.16-82.9,44.38-27.39,9.83-51.15,12.51-64.77,5.71-3.11-1.55-5.72-3.56-7.84-5.99C1.6,224.52-.27,218.66.03,211.92c.25-5.56,2.02-11.63,5.22-18.04,4.87-9.75,13.37-20.93,25.15-32.77l10.29,18.9c-7.89,8.45-13.61,16.26-17,23.04-1.95,3.91-3.02,7.2-3.13,9.75-.06,1.37.15,2.38.66,2.96.31.35.83.71,1.56,1.08,8.45,4.22,26.44,1.39,48.68-6.59,23.96-8.6,51.82-23.22,77.9-41.8,29.34-20.91,49.7-41.97,57.64-57.85,1.82-3.64,2.87-6.79,3.08-9.35.12-1.44-.03-2.51-.47-3.13-.3-.42-.87-.85-1.72-1.27-3.71-1.85-9.98-2.23-18.28-1.2-4.83.6-10.16,1.68-15.92,3.23l-10.08-18.51h0Z"/>
        <g class="cls-14">
          <path class="cls-26" d="m187.11,75.21c12.29-1.53,22.53-.49,29.95,3.22,3.91,1.95,6.99,4.57,9.28,7.79,3.4,4.78,4.78,10.42,4.26,16.73-.43,5.2-2.19,10.86-5.17,16.84-9.31,18.65-32.01,42.51-64.15,65.42-27.56,19.64-57.22,35.16-82.9,44.38-27.39,9.83-51.15,12.51-64.77,5.71-1.36-.68-2.63-1.45-3.81-2.31,1.51-2.43,3.3-5,5.38-7.7,36.32,10.91,102.93-18.94,150.36-55.41,17.4-13.38,65.45-55.3,53.97-81.78-4.03-9.3-15.24-14.62-32.39-12.87h0Z"/>
        </g>
        <path class="cls-13" d="m31.43,239.04c-7-.15-13.04-1.37-17.83-3.76-3.11-1.55-5.72-3.56-7.84-5.99C1.6,224.52-.27,218.66.03,211.92c.25-5.56,2.02-11.63,5.22-18.04,4.87-9.75,13.37-20.93,25.15-32.77l10.29,18.9c-7.89,8.45-13.61,16.26-17,23.04-1.64,3.29-2.65,6.14-3,8.48h0c-2.76,16.83.82,26,10.74,27.51h0Z"/>
        <path class="cls-12" d="m163.61,80.37c8.56-2.56,16.46-4.29,23.5-5.17,12.08.54,25.72,8.24,22.96,26.05.12-1.44-.03-2.51-.47-3.13-.3-.42-.87-.85-1.72-1.27-3.71-1.85-9.98-2.23-18.28-1.2-4.83.6-10.16,1.68-15.92,3.23l-10.08-18.51h0Z"/>
        <path class="cls-2" d="m70.65,72.57c11.45-33.27-2.73-40.54-16.36-47.53-6.51-3.34-12.91-6.62-17.45-12.11-3.06-3.71-5.61-5.04-7.59-4.62-2.13.46-4.17,2.83-5.91,6.48-2.08,4.35-3.51,10.24-4.06,16.88-1.39,16.74,2.81,37.84,16.27,50.99l-3.85,7.64C14.79,75.35,9.46,50.49,11.08,31c.63-7.63,2.34-14.52,4.83-19.75C18.74,5.32,22.71,1.31,27.52.27c5-1.08,10.38,1.02,15.67,7.42,3.5,4.24,9.12,7.12,14.84,10.05,16.78,8.6,34.26,17.56,20.38,57.55-.3.87-.88,1.51-1.71,1.9-.83.39-1.69.43-2.56.11l-1.52-.57c-1.67-.62-2.55-2.47-1.96-4.16h0Z"/>
        <g class="cls-17">
          <path class="cls-6" d="m74.33,45.88l-3.6-.39c1.63,4.84,2.17,11.15,1.15,19.55.28-.02.57-.03.86-.03.07,0,.13,0,.19,0,2.05-7.99,2.33-14.19,1.4-19.14Z"/>
        </g>
        <g class="cls-24">
          <path class="cls-6" d="m83.29,46.84c.49,5.71-.25,12.65-2.62,21.21.23.21.45.43.67.65,3.51-8.59,5.06-15.63,5.17-21.52l-3.21-.35h0Z"/>
        </g>
      </g>
    </g>
  </g>
</svg>